<svg xmlns="http://www.w3.org/2000/svg" width="256" height="256"><path fill="#dfdecf" d="M32 160h64v96H32a32 32 45 0 1-32-32v-32a32 32 135 0 1 32-32"/><path fill="#521955" d="M32 0h64v192H0V32A32 32 135 0 1 32 0"/><rect width="96" height="96" x="64" y="160" fill="#908ca3" ry="0"/><path fill="#dc263c" d="M64 0h96v192H64z"/><rect width="96" height="96" x="128" y="160" fill="#342c40" ry="0"/><path fill="#160b26" d="M192 160h32a32 32 45 0 1 32 32v32a32 32 135 0 1-32 32h-32z"/><path fill="#ff9b00" d="M128 0h96v192h-96z"/><path fill="#ffed47" d="M192 0h32a32 32 45 0 1 32 32v160h-64z"/></svg>