<svg xmlns="http://www.w3.org/2000/svg" width="304" height="64" viewBox="0 0 304 64"><defs><clipPath id="b"><rect width="64" height="64" rx="8"/></clipPath></defs><g fill="#f4f4e8"><path d="m80 17v30h6V25.572L107 47h6V17h-6v21.428L86 17z"/><path d="m116 17 3 6h8v24h6V23h10l-3-6z"/><path d="m187 26c0-1.6569 1.3431-3 3-3h23l-3-6h-20c-4.9706 0-9 4.0294-9 9v12c0 4.9706 4.0294 9 9 9h23l-3-6h-20c-1.6569 0-3-1.3431-3-3z"/><path d="m254 35c4.9706 0 9-4.0294 9-9 0-4.9706-4.0294-9-9-9h-23l3 6h20c1.6568 0 3 1.3431 3 3s-1.3432 3-3 3h-14c-4.9706 0-9 4.0294-9 9v9h6v-9c0-1.6569 1.3431-3 3-3z"/><path d="m248.8 32 8.333 15h6.8642l-8.3335-15z"/><path d="m211 29h14l3 6h-14z"/><path id="a" d="m154 35c-4.9706 0-9-4.0294-9-9 0-4.9706 4.0294-9 9-9h19l3 6h-22c-1.6569 0-3 1.3431-3 3s1.3431 3 3 3h14c4.9706 0 9 4.0294 9 9 0 4.9706-4.0294 9-9 9l-20-1.13e-4-3-6L168 41c1.6568 0 3-1.3431 3-3s-1.3432-3-3-3z" fill="#f4f4e8"/></g><use transform="translate(122)" href="#a"/><g clip-path="url(#b)"><path d="m-16 32h48v48h-48z" fill="#dfdecf"/><path d="m16 32h32v48H16z" fill="#908ca3"/><path d="m32 32h32v48H32z" fill="#342c40"/><path d="m48 32h32v48H48z" fill="#160b26"/><path d="m-16-16h48v64h-48z" fill="#521955"/><path d="m16-16h32v64H16z" fill="#dc263c"/><path d="m32-16h32v64H32z" fill="#ff9b00"/><path d="m48-16h32v64H48z" fill="#ffed47"/></g></svg>